<svg id="svg" version="1.1" width="1000" height="153" xmlns="http://www.w3.org/2000/svg" xmlns:xlink="http://www.w3.org/1999/xlink" style="display: block;"><g id="svgg"><path id="path0" d="M104.000 0.710 C 102.221 1.586,102.249 1.477,102.005 8.600 L 101.800 14.600 100.100 14.723 L 98.400 14.846 98.400 18.200 L 98.400 21.554 100.100 21.677 L 101.800 21.800 102.000 28.136 L 102.200 34.471 103.322 35.436 C 104.424 36.382,104.586 36.400,112.122 36.401 C 116.345 36.401,124.795 36.520,130.900 36.665 L 142.000 36.929 142.000 33.064 L 142.000 29.200 131.700 29.160 C 126.035 29.138,118.700 29.093,115.400 29.060 L 109.400 29.000 109.286 25.378 L 109.172 21.756 121.986 21.929 L 134.800 22.102 134.800 18.451 L 134.800 14.800 122.000 14.800 L 109.200 14.800 109.200 11.243 C 109.200 6.775,107.410 7.200,126.233 7.200 L 142.000 7.200 142.000 3.600 L 142.000 0.000 123.700 0.010 C 107.199 0.020,105.262 0.089,104.000 0.710 M146.000 3.600 L 146.000 7.200 152.400 7.200 L 158.800 7.200 158.800 22.000 L 158.800 36.800 162.400 36.800 L 166.000 36.800 166.000 22.000 L 166.000 7.200 172.600 7.200 L 179.200 7.200 179.200 3.600 L 179.200 0.000 162.600 0.000 L 146.000 0.000 146.000 3.600 M185.326 0.585 C 182.788 1.689,182.751 1.963,182.882 18.715 C 183.010 35.023,183.026 35.143,185.189 35.957 C 185.745 36.166,194.525 36.452,204.700 36.592 L 223.200 36.847 223.200 33.023 L 223.200 29.200 212.700 29.168 C 206.925 29.151,199.500 29.106,196.200 29.068 L 190.200 29.000 190.086 25.371 L 189.972 21.742 202.986 21.924 L 216.000 22.106 216.000 18.453 L 216.000 14.800 203.000 14.800 L 190.000 14.800 190.000 11.480 C 190.000 6.824,188.500 7.200,207.080 7.200 L 223.200 7.200 223.200 3.600 L 223.200 0.000 204.900 0.016 C 190.213 0.028,186.348 0.141,185.326 0.585 M226.800 18.400 L 226.800 36.800 230.400 36.800 L 234.000 36.800 234.000 22.000 L 234.000 7.200 246.576 7.200 C 259.254 7.200,259.773 7.255,259.794 8.600 C 259.797 8.831,261.464 9.049,263.746 9.115 L 267.692 9.230 267.534 6.428 C 267.171 0.002,267.168 0.001,244.900 0.001 L 226.800 0.000 226.800 18.400 M271.200 18.400 L 271.200 36.800 274.800 36.800 L 278.400 36.800 278.400 22.480 C 278.400 11.876,278.525 8.035,278.880 7.680 C 279.475 7.085,302.666 7.001,303.600 7.591 C 304.112 7.914,304.217 10.094,304.314 22.400 L 304.429 36.831 307.914 36.715 L 311.400 36.600 311.400 20.129 C 311.400 -2.271,313.918 0.001,289.100 0.001 L 271.200 0.000 271.200 18.400 M315.600 16.946 C 315.600 36.053,315.510 35.493,318.718 36.384 C 321.824 37.246,349.663 36.915,352.146 35.986 C 355.693 34.659,355.600 35.192,355.600 16.240 L 355.600 0.000 352.000 0.000 L 348.400 0.000 348.400 14.351 C 348.400 25.347,348.283 28.798,347.900 29.112 C 347.587 29.368,342.955 29.543,335.535 29.578 L 323.670 29.635 323.035 28.728 C 322.485 27.943,322.400 25.969,322.400 13.911 L 322.400 0.000 319.000 0.000 L 315.600 0.000 315.600 16.946 M362.000 0.701 C 359.490 1.955,359.201 3.132,359.201 12.126 C 359.200 22.841,357.106 21.600,375.188 21.600 C 393.467 21.600,392.400 21.354,392.400 25.576 C 392.400 29.891,393.655 29.600,375.026 29.600 L 359.200 29.600 359.200 33.200 L 359.200 36.800 377.074 36.800 C 400.817 36.800,399.702 37.324,399.935 26.050 C 400.180 14.194,401.119 14.800,382.511 14.800 C 365.563 14.800,366.400 15.006,366.400 10.829 C 366.400 6.958,365.236 7.200,383.829 7.200 L 400.000 7.200 400.000 3.600 L 400.000 0.000 381.700 0.001 C 365.079 0.001,363.272 0.065,362.000 0.701 " stroke="none" fill="#000000" fill-rule="evenodd"></path><path id="path1" d="M158.514 9.400 C 158.517 10.500,158.595 10.903,158.687 10.295 C 158.779 9.686,158.777 8.786,158.682 8.295 C 158.587 7.803,158.511 8.300,158.514 9.400 M138.500 29.076 C 138.885 29.176,139.515 29.176,139.900 29.076 C 140.285 28.975,139.970 28.893,139.200 28.893 C 138.430 28.893,138.115 28.975,138.500 29.076 M219.505 29.083 C 220.002 29.179,220.722 29.175,221.105 29.075 C 221.487 28.975,221.080 28.896,220.200 28.901 C 219.320 28.905,219.007 28.987,219.505 29.083 M177.900 45.482 C 178.395 45.578,179.205 45.578,179.700 45.482 C 180.195 45.387,179.790 45.309,178.800 45.309 C 177.810 45.309,177.405 45.387,177.900 45.482 M235.750 49.400 C 235.751 51.820,235.816 52.758,235.896 51.485 C 235.976 50.212,235.975 48.232,235.894 47.085 C 235.814 45.938,235.749 46.980,235.750 49.400 M259.365 54.000 C 259.365 57.850,259.425 59.425,259.498 57.500 C 259.571 55.575,259.571 52.425,259.498 50.500 C 259.425 48.575,259.365 50.150,259.365 54.000 M184.900 59.499 C 187.485 59.568,191.715 59.568,194.300 59.499 C 196.885 59.429,194.770 59.372,189.600 59.372 C 184.430 59.372,182.315 59.429,184.900 59.499 M48.500 61.076 C 48.885 61.176,49.515 61.176,49.900 61.076 C 50.285 60.975,49.970 60.893,49.200 60.893 C 48.430 60.893,48.115 60.975,48.500 61.076 " stroke="none" fill="#898989" fill-rule="evenodd"></path><path id="path2" d="M31.168 3.908 C 24.425 5.733,19.027 11.127,12.536 22.526 C 8.874 28.956,8.298 30.973,8.153 37.861 L 8.035 43.521 6.263 46.261 C 5.288 47.767,3.885 50.260,3.145 51.800 C 2.405 53.340,1.646 54.713,1.457 54.850 C 1.269 54.988,1.312 55.222,1.554 55.371 C 1.984 55.637,4.347 54.378,8.857 51.480 L 11.114 50.031 12.098 51.518 C 14.714 55.470,19.676 58.893,24.600 60.140 C 26.995 60.746,36.242 61.188,37.000 60.733 C 37.220 60.600,38.210 60.365,39.200 60.209 C 43.766 59.491,51.382 55.721,56.530 51.630 C 60.836 48.208,61.260 47.488,61.117 43.830 L 61.000 40.832 59.200 42.053 C 52.230 46.778,41.164 49.656,34.690 48.428 C 29.896 47.518,23.518 44.454,23.425 43.016 C 23.402 42.660,27.265 40.194,45.349 29.020 L 52.437 24.640 55.219 19.566 C 58.530 13.525,58.463 14.198,56.035 11.281 C 50.385 4.491,40.185 1.467,31.168 3.908 M158.514 15.400 C 158.517 16.500,158.595 16.903,158.687 16.295 C 158.779 15.686,158.777 14.786,158.682 14.295 C 158.587 13.803,158.511 14.300,158.514 15.400 M34.866 15.379 C 38.687 16.189,46.397 20.272,45.325 20.917 C 45.146 21.025,39.095 24.733,31.879 29.157 C 16.884 38.348,18.390 37.696,17.283 35.481 C 14.766 30.440,14.398 21.929,16.621 20.144 C 21.427 16.284,29.360 14.212,34.866 15.379 M123.312 29.095 C 124.364 29.177,125.984 29.176,126.912 29.092 C 127.840 29.008,126.980 28.941,125.000 28.942 C 123.020 28.943,122.260 29.012,123.312 29.095 M130.700 29.082 C 131.195 29.178,132.005 29.178,132.500 29.082 C 132.995 28.987,132.590 28.909,131.600 28.909 C 130.610 28.909,130.205 28.987,130.700 29.082 M204.112 29.095 C 205.164 29.177,206.784 29.176,207.712 29.092 C 208.640 29.008,207.780 28.941,205.800 28.942 C 203.820 28.943,203.060 29.012,204.112 29.095 M211.905 29.083 C 212.402 29.179,213.122 29.175,213.505 29.075 C 213.887 28.975,213.480 28.896,212.600 28.901 C 211.720 28.905,211.407 28.987,211.905 29.083 " stroke="none" fill="#ffffff" fill-rule="evenodd"></path><path id="path3" d="M8.200 0.282 C 6.031 0.716,3.007 3.387,1.706 6.016 L 0.412 8.633 0.393 30.719 C 0.370 57.216,0.309 56.845,3.655 50.332 C 4.804 48.094,6.245 45.693,6.857 44.996 C 7.936 43.768,7.963 43.624,7.740 40.364 C 7.118 31.298,12.141 19.746,20.827 10.268 C 29.070 1.271,43.493 0.306,53.253 8.098 C 55.285 9.721,58.000 13.153,58.000 14.099 C 58.000 15.667,52.518 24.958,51.111 25.777 C 49.725 26.582,36.318 34.847,28.144 39.934 L 23.288 42.957 24.744 44.118 C 32.596 50.380,46.169 49.728,58.100 42.515 L 61.225 40.626 61.113 24.413 L 61.000 8.200 60.032 6.234 C 58.877 3.887,57.303 2.367,54.609 0.999 L 52.618 -0.012 30.809 0.055 C 18.814 0.092,8.640 0.194,8.200 0.282 M82.053 15.400 C 81.364 16.186,80.800 16.968,80.800 17.138 C 80.800 17.309,80.433 17.843,79.984 18.325 C 79.536 18.806,79.276 19.200,79.407 19.200 C 79.538 19.200,79.379 19.695,79.054 20.300 C 78.728 20.905,78.057 22.300,77.562 23.400 C 76.068 26.719,74.058 29.603,71.317 32.358 C 69.886 33.795,68.634 35.424,68.534 35.976 C 68.296 37.288,66.494 40.582,65.323 41.845 C 64.815 42.393,64.395 42.967,64.389 43.121 C 64.383 43.274,63.348 44.679,62.089 46.243 C 56.801 52.809,48.888 57.868,40.275 60.188 C 38.285 60.724,38.495 60.748,45.400 60.765 C 56.215 60.791,61.180 57.479,61.544 49.994 C 61.625 48.323,61.878 47.562,62.603 46.800 C 63.595 45.759,65.090 44.098,66.800 42.136 C 68.163 40.572,69.857 38.300,71.969 35.200 C 72.943 33.770,73.889 32.540,74.070 32.467 C 74.252 32.393,74.400 32.165,74.400 31.959 C 74.400 31.753,74.860 30.856,75.421 29.966 C 77.787 26.219,83.788 14.455,83.488 14.154 C 83.388 14.055,82.743 14.615,82.053 15.400 M25.682 15.977 C 22.977 16.750,18.976 18.696,16.949 20.223 C 14.753 21.878,14.874 29.756,17.172 34.665 L 18.371 37.228 19.886 36.275 C 20.719 35.750,25.450 32.840,30.400 29.808 C 35.350 26.775,40.710 23.486,42.312 22.498 L 45.223 20.703 43.912 19.719 C 38.537 15.690,31.639 14.274,25.682 15.977 M6.801 53.004 C 1.782 56.098,1.891 55.881,4.283 58.004 C 7.342 60.720,7.732 60.804,17.087 60.771 L 25.400 60.742 23.305 59.997 C 18.439 58.267,14.073 55.028,11.594 51.308 L 11.000 50.415 6.801 53.004 " stroke="none" fill="#ed1c24" fill-rule="evenodd"></path><path id="path4" d="M0.186 30.400 C 0.186 42.170,0.237 46.985,0.300 41.100 C 0.362 35.215,0.362 25.585,0.300 19.700 C 0.237 13.815,0.186 18.630,0.186 30.400 M82.770 14.268 L 81.800 15.336 82.887 14.568 C 83.486 14.146,83.981 13.665,83.987 13.500 C 84.008 13.007,83.789 13.146,82.770 14.268 M37.105 48.683 C 37.602 48.779,38.322 48.775,38.705 48.675 C 39.087 48.575,38.680 48.496,37.800 48.501 C 36.920 48.505,36.607 48.587,37.105 48.683 " stroke="none" fill="#ef3c42" fill-rule="evenodd"></path><path id="path5" d="M30.300 15.082 C 30.795 15.178,31.605 15.178,32.100 15.082 C 32.595 14.987,32.190 14.909,31.200 14.909 C 30.210 14.909,29.805 14.987,30.300 15.082 M158.531 25.000 C 158.533 26.540,158.605 27.121,158.692 26.291 C 158.779 25.461,158.777 24.201,158.689 23.491 C 158.600 22.781,158.529 23.460,158.531 25.000 M7.714 38.600 C 7.717 39.700,7.795 40.103,7.887 39.495 C 7.979 38.886,7.977 37.986,7.882 37.495 C 7.787 37.003,7.711 37.500,7.714 38.600 M151.705 59.087 C 152.314 59.179,153.214 59.177,153.705 59.082 C 154.197 58.987,153.700 58.911,152.600 58.914 C 151.500 58.917,151.097 58.995,151.705 59.087 M36.938 60.900 C 36.836 61.065,39.058 61.173,41.876 61.140 C 47.519 61.074,47.163 60.887,41.061 60.713 C 38.895 60.651,37.040 60.735,36.938 60.900 " stroke="none" fill="#ffc6c6" fill-rule="evenodd"></path><path id="path6" d="M142.144 3.600 C 142.144 5.690,142.212 6.545,142.294 5.500 C 142.376 4.455,142.376 2.745,142.294 1.700 C 142.212 0.655,142.144 1.510,142.144 3.600 M315.383 16.600 C 315.383 25.840,315.436 29.563,315.500 24.873 C 315.564 20.183,315.564 12.623,315.499 8.073 C 315.435 3.523,315.383 7.360,315.383 16.600 M322.580 14.000 C 322.580 21.810,322.634 25.005,322.699 21.100 C 322.765 17.195,322.765 10.805,322.699 6.900 C 322.634 2.995,322.580 6.190,322.580 14.000 M101.687 8.877 L 101.600 14.354 99.900 14.477 L 98.200 14.600 98.085 18.300 L 97.970 22.000 99.774 22.000 L 101.577 22.000 101.706 27.401 L 101.835 32.801 101.818 27.301 L 101.800 21.800 100.100 21.677 L 98.400 21.554 98.400 18.177 L 98.400 14.800 100.013 14.800 C 102.055 14.800,102.051 14.816,101.899 8.579 L 101.774 3.400 101.687 8.877 M366.528 10.800 C 366.528 12.230,366.601 12.815,366.689 12.100 C 366.778 11.385,366.778 10.215,366.689 9.500 C 366.601 8.785,366.528 9.370,366.528 10.800 M304.146 12.600 C 304.147 14.800,304.214 15.649,304.295 14.487 C 304.376 13.324,304.376 11.524,304.293 10.487 C 304.211 9.449,304.145 10.400,304.146 12.600 M115.500 14.699 C 119.075 14.766,124.925 14.766,128.500 14.699 C 132.075 14.633,129.150 14.579,122.000 14.579 C 114.850 14.579,111.925 14.633,115.500 14.699 M196.525 14.699 C 200.224 14.766,206.164 14.765,209.725 14.699 C 213.286 14.633,210.260 14.579,203.000 14.579 C 195.740 14.579,192.826 14.633,196.525 14.699 M375.126 14.700 C 379.155 14.765,385.635 14.765,389.526 14.699 C 393.417 14.634,390.120 14.580,382.200 14.581 C 374.280 14.581,371.097 14.634,375.126 14.700 M110.307 21.890 C 111.026 21.979,112.106 21.977,112.707 21.886 C 113.308 21.795,112.720 21.722,111.400 21.724 C 110.080 21.726,109.588 21.801,110.307 21.890 M191.100 21.889 C 191.815 21.978,192.985 21.978,193.700 21.889 C 194.415 21.801,193.830 21.728,192.400 21.728 C 190.970 21.728,190.385 21.801,191.100 21.889 M368.326 21.900 C 372.576 21.964,379.416 21.964,383.526 21.899 C 387.637 21.834,384.160 21.781,375.800 21.781 C 367.440 21.782,364.077 21.835,368.326 21.900 M142.146 33.000 C 142.147 35.200,142.214 36.049,142.295 34.887 C 142.376 33.724,142.376 31.924,142.293 30.887 C 142.211 29.849,142.145 30.800,142.146 33.000 M328.924 29.499 C 331.962 29.567,336.822 29.567,339.724 29.499 C 342.626 29.431,340.140 29.375,334.200 29.375 C 328.260 29.375,325.886 29.431,328.924 29.499 M367.100 29.500 C 371.555 29.564,378.845 29.564,383.300 29.500 C 387.755 29.435,384.110 29.382,375.200 29.382 C 366.290 29.382,362.645 29.435,367.100 29.500 M121.513 36.695 C 122.676 36.776,124.476 36.776,125.513 36.693 C 126.551 36.611,125.600 36.545,123.400 36.546 C 121.200 36.547,120.351 36.614,121.513 36.695 M202.713 36.695 C 203.876 36.776,205.676 36.776,206.713 36.693 C 207.751 36.611,206.800 36.545,204.600 36.546 C 202.400 36.547,201.551 36.614,202.713 36.695 " stroke="none" fill="#1d1b19" fill-rule="evenodd"></path><path id="path7" d="M270.985 18.400 C 270.985 28.630,271.036 32.815,271.100 27.700 C 271.163 22.585,271.163 14.215,271.100 9.100 C 271.036 3.985,270.985 8.170,270.985 18.400 M355.782 15.800 C 355.782 24.600,355.835 28.143,355.900 23.673 C 355.964 19.204,355.964 12.004,355.899 7.673 C 355.835 3.343,355.782 7.000,355.782 15.800 M118.127 7.500 C 122.707 7.564,130.087 7.564,134.527 7.499 C 138.967 7.435,135.220 7.383,126.200 7.383 C 117.180 7.383,113.547 7.435,118.127 7.500 M149.100 7.498 C 150.915 7.572,153.885 7.572,155.700 7.498 C 157.515 7.423,156.030 7.363,152.400 7.363 C 148.770 7.363,147.285 7.423,149.100 7.498 M166.095 22.100 L 166.190 37.000 166.300 22.310 L 166.410 7.620 172.905 7.499 L 179.400 7.379 172.700 7.289 L 166.000 7.200 166.095 22.100 M190.661 7.500 C 190.492 7.773,202.841 7.767,217.600 7.487 C 220.790 7.426,216.076 7.337,207.124 7.288 C 198.172 7.240,190.764 7.335,190.661 7.500 M234.182 7.702 C 234.076 7.978,234.039 14.683,234.100 22.602 L 234.210 37.000 234.305 22.306 L 234.400 7.612 246.700 7.500 L 259.000 7.388 246.687 7.294 C 237.111 7.221,234.332 7.312,234.182 7.702 M285.525 7.499 C 288.893 7.566,294.293 7.566,297.525 7.499 C 300.756 7.432,298.000 7.377,291.400 7.377 C 284.800 7.377,282.156 7.432,285.525 7.499 M375.727 7.500 C 380.307 7.564,387.687 7.564,392.127 7.499 C 396.567 7.435,392.820 7.383,383.800 7.383 C 374.780 7.383,371.147 7.435,375.727 7.500 M190.134 11.600 C 190.134 13.250,190.205 13.925,190.291 13.100 C 190.378 12.275,190.378 10.925,190.291 10.100 C 190.205 9.275,190.134 9.950,190.134 11.600 M304.174 26.600 C 304.175 32.320,304.231 34.604,304.299 31.676 C 304.368 28.748,304.367 24.068,304.299 21.276 C 304.230 18.484,304.174 20.880,304.174 26.600 M190.137 25.000 C 190.139 26.760,190.209 27.430,190.293 26.489 C 190.378 25.549,190.377 24.109,190.291 23.289 C 190.205 22.470,190.136 23.240,190.137 25.000 M109.300 36.698 C 111.225 36.771,114.375 36.771,116.300 36.698 C 118.225 36.625,116.650 36.565,112.800 36.565 C 108.950 36.565,107.375 36.625,109.300 36.698 M190.080 36.698 C 191.994 36.771,195.234 36.771,197.280 36.698 C 199.326 36.626,197.760 36.566,193.800 36.565 C 189.840 36.565,188.166 36.624,190.080 36.698 " stroke="none" fill="#494541" fill-rule="evenodd"></path><path id="path8" d="M134.901 19.000 C 134.905 19.880,134.987 20.193,135.083 19.695 C 135.179 19.198,135.175 18.478,135.075 18.095 C 134.975 17.713,134.896 18.120,134.901 19.000 M105.600 45.849 C 102.904 46.540,102.000 47.527,102.000 49.782 C 102.000 53.158,104.075 53.880,114.010 53.962 C 124.242 54.047,125.515 54.466,124.405 57.387 C 123.859 58.823,122.710 59.000,113.920 59.000 C 105.145 59.000,105.048 58.974,104.850 56.600 C 104.730 55.162,102.000 55.869,102.000 57.338 C 102.000 60.371,104.180 60.922,115.423 60.733 C 125.926 60.556,127.568 59.982,127.591 56.474 C 127.616 52.716,125.501 52.070,112.827 51.965 C 105.934 51.907,105.200 51.673,105.200 49.526 C 105.200 47.276,106.015 47.060,114.617 47.027 C 122.388 46.998,124.000 47.373,124.000 49.209 C 124.000 49.863,124.273 50.000,125.572 50.000 L 127.144 50.000 126.777 48.719 C 126.284 47.000,125.677 46.465,123.462 45.799 C 120.910 45.031,108.661 45.065,105.600 45.849 M140.796 45.823 C 138.035 46.657,137.620 47.666,137.719 53.298 C 137.847 60.626,138.168 60.797,151.800 60.793 C 166.148 60.790,166.564 60.570,166.564 53.000 C 166.564 47.846,165.839 46.463,162.725 45.672 C 160.197 45.031,143.026 45.149,140.796 45.823 M208.116 51.651 C 208.462 60.935,208.256 60.800,222.087 60.800 C 235.754 60.800,235.510 60.964,235.581 51.763 L 235.631 45.200 234.215 45.200 L 232.800 45.200 232.800 50.350 C 232.800 59.359,233.320 58.906,222.856 59.015 C 210.750 59.141,211.200 59.446,211.200 51.124 L 211.200 45.200 209.538 45.200 L 207.877 45.200 208.116 51.651 M244.800 46.000 C 244.800 46.763,245.067 46.800,250.600 46.800 L 256.400 46.800 256.400 53.800 L 256.400 60.800 257.791 60.800 L 259.181 60.800 259.291 53.900 L 259.400 47.000 265.300 46.889 C 270.869 46.785,271.200 46.734,271.200 45.989 C 271.200 45.220,270.874 45.200,258.000 45.200 C 245.067 45.200,244.800 45.216,244.800 46.000 M280.400 53.000 L 280.400 60.800 282.000 60.800 L 283.600 60.800 283.600 53.000 L 283.600 45.200 282.000 45.200 L 280.400 45.200 280.400 53.000 M305.600 45.316 C 305.490 45.432,303.780 45.575,301.800 45.631 C 295.324 45.818,294.397 46.783,294.405 53.326 C 294.412 58.431,294.512 58.777,296.321 60.000 L 297.800 61.000 308.600 61.000 C 322.950 61.000,323.188 60.876,323.188 53.400 C 323.188 48.180,322.193 46.370,319.024 45.827 C 317.182 45.511,305.823 45.079,305.600 45.316 M334.000 53.000 L 334.000 60.800 335.600 60.800 L 337.200 60.800 337.200 54.000 C 337.200 46.253,337.097 46.424,340.363 48.700 C 341.547 49.525,342.934 50.470,343.445 50.800 C 343.957 51.130,347.014 53.200,350.240 55.400 C 353.467 57.600,356.577 59.702,357.153 60.071 C 357.852 60.518,359.098 60.751,360.900 60.771 L 363.600 60.800 363.600 53.000 L 363.600 45.200 362.000 45.200 L 360.400 45.200 360.400 52.000 C 360.400 60.172,361.057 59.914,353.400 54.746 C 337.625 44.096,339.565 45.200,336.624 45.200 L 334.000 45.200 334.000 53.000 M378.014 45.809 C 372.066 47.210,373.107 53.148,379.409 53.761 C 380.504 53.867,384.547 53.980,388.392 54.012 C 396.358 54.079,396.800 54.201,396.800 56.346 C 396.800 58.806,396.055 59.000,386.600 59.000 C 377.911 59.000,377.200 58.845,377.200 56.951 C 377.200 56.104,377.020 56.000,375.555 56.000 L 373.911 56.000 374.184 57.457 C 374.761 60.529,376.447 60.930,387.857 60.713 C 398.863 60.503,400.639 59.731,399.845 55.499 C 399.299 52.587,397.146 52.065,385.314 51.979 C 378.291 51.928,377.200 51.619,377.200 49.676 C 377.200 47.432,380.795 46.597,389.200 46.890 C 394.692 47.080,396.000 47.489,396.000 49.014 C 396.000 49.898,396.166 50.000,397.600 50.000 C 400.768 50.000,399.499 46.893,395.887 45.806 C 393.519 45.093,381.046 45.096,378.014 45.809 M177.200 53.400 L 177.200 61.200 188.000 61.200 C 198.533 61.200,198.800 61.180,198.800 60.400 C 198.800 59.623,198.533 59.600,189.600 59.600 L 180.400 59.600 180.400 52.600 L 180.400 45.600 178.800 45.600 L 177.200 45.600 177.200 53.400 M162.274 47.832 C 163.787 48.789,164.085 56.487,162.664 57.907 C 161.272 59.299,143.934 59.635,141.910 58.309 C 140.319 57.266,140.053 49.390,141.558 47.880 C 142.690 46.745,160.491 46.703,162.274 47.832 M318.896 47.771 C 319.768 48.161,320.248 50.291,320.163 53.400 C 320.004 59.287,320.365 59.019,312.041 59.419 C 305.842 59.716,298.995 59.166,298.130 58.301 C 297.687 57.859,297.490 56.677,297.418 54.028 C 297.289 49.300,297.881 47.918,300.200 47.537 C 302.356 47.183,318.020 47.379,318.896 47.771 " stroke="none" fill="#6d6e71" fill-rule="evenodd"></path><path id="path9" d="M158.493 12.400 C 158.493 13.170,158.575 13.485,158.676 13.100 C 158.776 12.715,158.776 12.085,158.676 11.700 C 158.575 11.315,158.493 11.630,158.493 12.400 M158.531 19.800 C 158.533 21.340,158.605 21.921,158.692 21.091 C 158.779 20.261,158.777 19.001,158.689 18.291 C 158.600 17.581,158.529 18.260,158.531 19.800 M158.548 31.600 C 158.548 33.910,158.614 34.855,158.695 33.700 C 158.776 32.545,158.776 30.655,158.695 29.500 C 158.614 28.345,158.548 29.290,158.548 31.600 M134.300 29.089 C 135.015 29.178,136.185 29.178,136.900 29.089 C 137.615 29.001,137.030 28.928,135.600 28.928 C 134.170 28.928,133.585 29.001,134.300 29.089 M215.100 29.089 C 215.815 29.178,216.985 29.178,217.700 29.089 C 218.415 29.001,217.830 28.928,216.400 28.928 C 214.970 28.928,214.385 29.001,215.100 29.089 M149.900 47.082 C 150.395 47.178,151.205 47.178,151.700 47.082 C 152.195 46.987,151.790 46.909,150.800 46.909 C 149.810 46.909,149.405 46.987,149.900 47.082 M247.718 47.098 C 249.433 47.173,252.133 47.172,253.718 47.097 C 255.303 47.021,253.900 46.959,250.600 46.960 C 247.300 46.961,246.003 47.022,247.718 47.098 M262.518 47.098 C 264.233 47.173,266.933 47.172,268.518 47.097 C 270.103 47.021,268.700 46.959,265.400 46.960 C 262.100 46.961,260.803 47.022,262.518 47.098 M148.900 59.076 C 149.285 59.176,149.915 59.176,150.300 59.076 C 150.685 58.975,150.370 58.893,149.600 58.893 C 148.830 58.893,148.515 58.975,148.900 59.076 M222.300 59.082 C 222.795 59.178,223.605 59.178,224.100 59.082 C 224.595 58.987,224.190 58.909,223.200 58.909 C 222.210 58.909,221.805 58.987,222.300 59.082 M307.511 59.493 C 308.451 59.578,309.891 59.577,310.711 59.491 C 311.530 59.405,310.760 59.336,309.000 59.337 C 307.240 59.339,306.570 59.409,307.511 59.493 " stroke="none" fill="#a8a8ae" fill-rule="evenodd"></path></g></svg>